# xmcd CD database file
#
# Track frame offsets:
#	150
#	14578
#	27528
#	38316
#	59630
#	68338
#	84116
#	105049
#	113062
#	127731
#	132707
#	142621
#	148907
#	156095
#	165596
#	175362
#	186940
#	203118
#	219924
#	230595
#
# Disc length: 3104 seconds
#
# Revision: 0
# Processed by: cddbd v1.5.2PL0 Copyright (c) Steve Scherf et al.
# Submitted via: CDex 1.51
#
DISCID=080c1e14
DTITLE=Louis Armstrong - Louis Armstrong never heard before
DYEAR=2000
DGENRE=Jazz
TTITLE0=Flee As A Bird and When The Saints Go Marchin' In
TTITLE1=West End Blues
TTITLE2=Tiger Rag
TTITLE3=Basin Street Blues
TTITLE4=Milenberg Joys
TTITLE5=Mahogany Hall Stomp #1 (slow)
TTITLE6=Where The Blues Was Born In New Orleans
TTITLE7=Do You Know What It Means To Miss New Orleans* #1
TTITLE8=Farewell To Storyville
TTITLE9=Beale Street Stomp
TTITLE10=Do You Know What It Means To Miss New Orleans* #2
TTITLE11=Dippermouth Blues #1 (slow)
TTITLE12=Dippermouth Blues #2 (fast)
TTITLE13=Shimme Sha Wabble
TTITLE14=Ballin' The Jack
TTITLE15=King Porter Stomp
TTITLE16=Mahogany Hall Stomp #2 (fast)
TTITLE17=The Blues Are Brewing*
TTITLE18=Endie
TTITLE19=Raymond Street Blues
EXTD=YEAR: 2000
EXTT0=
EXTT1=
EXTT2=
EXTT3=
EXTT4=
EXTT5=
EXTT6=
EXTT7=
EXTT8=
EXTT9=
EXTT10=
EXTT11=
EXTT12=
EXTT13=
EXTT14=
EXTT15=
EXTT16=
EXTT17=
EXTT18=
EXTT19=
PLAYORDER=
